# Tiled2Unity generated file. Do not modify by hand.
# Wavefront file for 'OverworldTest_mesh_0002.obj'

# Vertices (Count = 428)
v -24 -1 0
v -25 -1 0
v -25 0 0
v -24 0 0
v -23 -1 0
v -24 -1 0
v -24 0 0
v -23 0 0
v -22 -1 0
v -23 -1 0
v -23 0 0
v -22 0 0
v -21 -1 0
v -22 -1 0
v -22 0 0
v -21 0 0
v -20 -1 0
v -21 -1 0
v -21 0 0
v -20 0 0
v -19 -1 0
v -20 -1 0
v -20 0 0
v -19 0 0
v -18 -1 0
v -19 -1 0
v -19 0 0
v -18 0 0
v -17 -1 0
v -18 -1 0
v -18 0 0
v -17 0 0
v -16 -1 0
v -17 -1 0
v -17 0 0
v -16 0 0
v -15 -1 0
v -16 -1 0
v -16 0 0
v -15 0 0
v -14 -1 0
v -15 -1 0
v -15 0 0
v -14 0 0
v -13 -1 0
v -14 -1 0
v -14 0 0
v -13 0 0
v -12 -1 0
v -13 -1 0
v -13 0 0
v -12 0 0
v -11 -1 0
v -12 -1 0
v -12 0 0
v -11 0 0
v -8 -1 0
v -9 -1 0
v -9 0 0
v -8 0 0
v -7 -1 0
v -8 -1 0
v -8 0 0
v -7 0 0
v -6 -1 0
v -7 -1 0
v -7 0 0
v -6 0 0
v -5 -1 0
v -6 -1 0
v -6 0 0
v -5 0 0
v -4 -1 0
v -5 -1 0
v -5 0 0
v -4 0 0
v -3 -1 0
v -4 -1 0
v -4 0 0
v -3 0 0
v -2 -1 0
v -3 -1 0
v -3 0 0
v -2 0 0
v -1 -1 0
v -2 -1 0
v -2 0 0
v -1 0 0
v 0 -1 0
v -1 -1 0
v -1 0 0
v 0 0 0
v -24 -2 0
v -25 -2 0
v -25 -1 0
v -24 -1 0
v 0 -2 0
v -1 -2 0
v -1 -1 0
v 0 -1 0
v -24 -3 0
v -25 -3 0
v -25 -2 0
v -24 -2 0
v -22 -3 0
v -23 -3 0
v -23 -2 0
v -22 -2 0
v -21 -3 0
v -22 -3 0
v -22 -2 0
v -21 -2 0
v 0 -3 0
v -1 -3 0
v -1 -2 0
v 0 -2 0
v -24 -4 0
v -25 -4 0
v -25 -3 0
v -24 -3 0
v -22 -4 0
v -23 -4 0
v -23 -3 0
v -22 -3 0
v -21 -4 0
v -22 -4 0
v -22 -3 0
v -21 -3 0
v -14 -4 0
v -15 -4 0
v -15 -3 0
v -14 -3 0
v -13 -4 0
v -14 -4 0
v -14 -3 0
v -13 -3 0
v 0 -4 0
v -1 -4 0
v -1 -3 0
v 0 -3 0
v -24 -5 0
v -25 -5 0
v -25 -4 0
v -24 -4 0
v -14 -5 0
v -15 -5 0
v -15 -4 0
v -14 -4 0
v -13 -5 0
v -14 -5 0
v -14 -4 0
v -13 -4 0
v 0 -5 0
v -1 -5 0
v -1 -4 0
v 0 -4 0
v -24 -6 0
v -25 -6 0
v -25 -5 0
v -24 -5 0
v 0 -6 0
v -1 -6 0
v -1 -5 0
v 0 -5 0
v -24 -7 0
v -25 -7 0
v -25 -6 0
v -24 -6 0
v -5 -7 0
v -6 -7 0
v -6 -6 0
v -5 -6 0
v -4 -7 0
v -5 -7 0
v -5 -6 0
v -4 -6 0
v -3 -7 0
v -4 -7 0
v -4 -6 0
v -3 -6 0
v 0 -7 0
v -1 -7 0
v -1 -6 0
v 0 -6 0
v -24 -8 0
v -25 -8 0
v -25 -7 0
v -24 -7 0
v -18 -8 0
v -19 -8 0
v -19 -7 0
v -18 -7 0
v 0 -8 0
v -1 -8 0
v -1 -7 0
v 0 -7 0
v -24 -9 0
v -25 -9 0
v -25 -8 0
v -24 -8 0
v 0 -9 0
v -1 -9 0
v -1 -8 0
v 0 -8 0
v -24 -10 0
v -25 -10 0
v -25 -9 0
v -24 -9 0
v 0 -10 0
v -1 -10 0
v -1 -9 0
v 0 -9 0
v -24 -11 0
v -25 -11 0
v -25 -10 0
v -24 -10 0
v 0 -11 0
v -1 -11 0
v -1 -10 0
v 0 -10 0
v -24 -12 0
v -25 -12 0
v -25 -11 0
v -24 -11 0
v 0 -12 0
v -1 -12 0
v -1 -11 0
v 0 -11 0
v -24 -13 0
v -25 -13 0
v -25 -12 0
v -24 -12 0
v -12 -13 0
v -13 -13 0
v -13 -12 0
v -12 -12 0
v 0 -13 0
v -1 -13 0
v -1 -12 0
v 0 -12 0
v -24 -16 0
v -25 -16 0
v -25 -15 0
v -24 -15 0
v -8 -16 0
v -9 -16 0
v -9 -15 0
v -8 -15 0
v 0 -16 0
v -1 -16 0
v -1 -15 0
v 0 -15 0
v -24 -17 0
v -25 -17 0
v -25 -16 0
v -24 -16 0
v 0 -17 0
v -1 -17 0
v -1 -16 0
v 0 -16 0
v -24 -18 0
v -25 -18 0
v -25 -17 0
v -24 -17 0
v 0 -18 0
v -1 -18 0
v -1 -17 0
v 0 -17 0
v -24 -19 0
v -25 -19 0
v -25 -18 0
v -24 -18 0
v 0 -19 0
v -1 -19 0
v -1 -18 0
v 0 -18 0
v -24 -20 0
v -25 -20 0
v -25 -19 0
v -24 -19 0
v 0 -20 0
v -1 -20 0
v -1 -19 0
v 0 -19 0
v -24 -21 0
v -25 -21 0
v -25 -20 0
v -24 -20 0
v -12 -21 0
v -13 -21 0
v -13 -20 0
v -12 -20 0
v -4 -21 0
v -5 -21 0
v -5 -20 0
v -4 -20 0
v 0 -21 0
v -1 -21 0
v -1 -20 0
v 0 -20 0
v -24 -22 0
v -25 -22 0
v -25 -21 0
v -24 -21 0
v -19 -22 0
v -20 -22 0
v -20 -21 0
v -19 -21 0
v 0 -22 0
v -1 -22 0
v -1 -21 0
v 0 -21 0
v -24 -23 0
v -25 -23 0
v -25 -22 0
v -24 -22 0
v 0 -23 0
v -1 -23 0
v -1 -22 0
v 0 -22 0
v -24 -24 0
v -25 -24 0
v -25 -23 0
v -24 -23 0
v 0 -24 0
v -1 -24 0
v -1 -23 0
v 0 -23 0
v -24 -25 0
v -25 -25 0
v -25 -24 0
v -24 -24 0
v -23 -25 0
v -24 -25 0
v -24 -24 0
v -23 -24 0
v -22 -25 0
v -23 -25 0
v -23 -24 0
v -22 -24 0
v -21 -25 0
v -22 -25 0
v -22 -24 0
v -21 -24 0
v -20 -25 0
v -21 -25 0
v -21 -24 0
v -20 -24 0
v -19 -25 0
v -20 -25 0
v -20 -24 0
v -19 -24 0
v -18 -25 0
v -19 -25 0
v -19 -24 0
v -18 -24 0
v -17 -25 0
v -18 -25 0
v -18 -24 0
v -17 -24 0
v -16 -25 0
v -17 -25 0
v -17 -24 0
v -16 -24 0
v -15 -25 0
v -16 -25 0
v -16 -24 0
v -15 -24 0
v -14 -25 0
v -15 -25 0
v -15 -24 0
v -14 -24 0
v -13 -25 0
v -14 -25 0
v -14 -24 0
v -13 -24 0
v -12 -25 0
v -13 -25 0
v -13 -24 0
v -12 -24 0
v -11 -25 0
v -12 -25 0
v -12 -24 0
v -11 -24 0
v -10 -25 0
v -11 -25 0
v -11 -24 0
v -10 -24 0
v -9 -25 0
v -10 -25 0
v -10 -24 0
v -9 -24 0
v -8 -25 0
v -9 -25 0
v -9 -24 0
v -8 -24 0
v -7 -25 0
v -8 -25 0
v -8 -24 0
v -7 -24 0
v -6 -25 0
v -7 -25 0
v -7 -24 0
v -6 -24 0
v -5 -25 0
v -6 -25 0
v -6 -24 0
v -5 -24 0
v -4 -25 0
v -5 -25 0
v -5 -24 0
v -4 -24 0
v -3 -25 0
v -4 -25 0
v -4 -24 0
v -3 -24 0
v -2 -25 0
v -3 -25 0
v -3 -24 0
v -2 -24 0
v -1 -25 0
v -2 -25 0
v -2 -24 0
v -1 -24 0
v 0 -25 0
v -1 -25 0
v -1 -24 0
v 0 -24 0

# Texture cooridinates (Count = 65)
vt 0.075 0.6111111
vt 0.1 0.6111111
vt 0.1 0.6388889
vt 0.075 0.6388889
vt 0.05 0.6111111
vt 0.05 0.6388889
vt 0 0.5277778
vt 0.025 0.5277778
vt 0.025 0.5555556
vt 0 0.5555556
vt 0.05 0.5277778
vt 0.05 0.5555556
vt 0.025 0.6111111
vt 0.025 0.6388889
vt 0.075 0.5833334
vt 0.1 0.5833334
vt 0.025 0.5833334
vt 0.05 0.5833334
vt 0.8 0.8888889
vt 0.825 0.8888889
vt 0.825 0.9166667
vt 0.8 0.9166667
vt 0.775 0.8888889
vt 0.775 0.9166667
vt 0.8 0.8611111
vt 0.825 0.8611111
vt 0.775 0.8611111
vt 0.125 0.9444444
vt 0.15 0.9444444
vt 0.15 0.9722222
vt 0.125 0.9722222
vt 0.1 0.9444444
vt 0.1 0.9722222
vt 0.125 0.9166667
vt 0.15 0.9166667
vt 0.1 0.9166667
vt 0.125 0.8333333
vt 0.15 0.8333333
vt 0.15 0.8611111
vt 0.125 0.8611111
vt 0.1 0.8333333
vt 0.1 0.8611111
vt 0.075 0.8333333
vt 0.075 0.8611111
vt 0.175 0.8333333
vt 0.2 0.8333333
vt 0.2 0.8611111
vt 0.175 0.8611111
vt 0 0.5833334
vt 0.7 0.9166667
vt 0.725 0.9166667
vt 0.725 0.9444444
vt 0.7 0.9444444
vt 0 0.6111111
vt 0.675 0.8888889
vt 0.7 0.8888889
vt 0.675 0.9166667
vt 0.25 0.8333333
vt 0.275 0.8333333
vt 0.275 0.8611111
vt 0.25 0.8611111
vt 0.225 0.8333333
vt 0.225 0.8611111
vt 0.075 0.5555556
vt 0.1 0.5555556

# Normal
vn 0 0 -1

# Mesh description
g OverworldTest_mesh_0002

# Faces
f 1/1/1 2/2/1 3/3/1 4/4/1
f 5/5/1 6/1/1 7/4/1 8/6/1
f 9/5/1 10/1/1 11/4/1 12/6/1
f 13/5/1 14/1/1 15/4/1 16/6/1
f 17/5/1 18/1/1 19/4/1 20/6/1
f 21/5/1 22/1/1 23/4/1 24/6/1
f 25/5/1 26/1/1 27/4/1 28/6/1
f 29/5/1 30/1/1 31/4/1 32/6/1
f 33/5/1 34/1/1 35/4/1 36/6/1
f 37/5/1 38/1/1 39/4/1 40/6/1
f 41/5/1 42/1/1 43/4/1 44/6/1
f 45/5/1 46/1/1 47/4/1 48/6/1
f 49/5/1 50/1/1 51/4/1 52/6/1
f 53/7/1 54/8/1 55/9/1 56/10/1
f 57/8/1 58/11/1 59/12/1 60/9/1
f 61/5/1 62/1/1 63/4/1 64/6/1
f 65/5/1 66/1/1 67/4/1 68/6/1
f 69/5/1 70/1/1 71/4/1 72/6/1
f 73/5/1 74/1/1 75/4/1 76/6/1
f 77/5/1 78/1/1 79/4/1 80/6/1
f 81/5/1 82/1/1 83/4/1 84/6/1
f 85/5/1 86/1/1 87/4/1 88/6/1
f 89/13/1 90/5/1 91/6/1 92/14/1
f 93/15/1 94/16/1 95/2/1 96/1/1
f 97/17/1 98/18/1 99/5/1 100/13/1
f 101/15/1 102/16/1 103/2/1 104/1/1
f 105/19/1 106/20/1 107/21/1 108/22/1
f 109/23/1 110/19/1 111/22/1 112/24/1
f 113/17/1 114/18/1 115/5/1 116/13/1
f 117/15/1 118/16/1 119/2/1 120/1/1
f 121/25/1 122/26/1 123/20/1 124/19/1
f 125/27/1 126/25/1 127/19/1 128/23/1
f 129/28/1 130/29/1 131/30/1 132/31/1
f 133/32/1 134/28/1 135/31/1 136/33/1
f 137/17/1 138/18/1 139/5/1 140/13/1
f 141/15/1 142/16/1 143/2/1 144/1/1
f 145/34/1 146/35/1 147/29/1 148/28/1
f 149/36/1 150/34/1 151/28/1 152/32/1
f 153/17/1 154/18/1 155/5/1 156/13/1
f 157/15/1 158/16/1 159/2/1 160/1/1
f 161/17/1 162/18/1 163/5/1 164/13/1
f 165/15/1 166/16/1 167/2/1 168/1/1
f 169/37/1 170/38/1 171/39/1 172/40/1
f 173/41/1 174/37/1 175/40/1 176/42/1
f 177/43/1 178/41/1 179/42/1 180/44/1
f 181/17/1 182/18/1 183/5/1 184/13/1
f 185/15/1 186/16/1 187/2/1 188/1/1
f 189/45/1 190/46/1 191/47/1 192/48/1
f 193/17/1 194/18/1 195/5/1 196/13/1
f 197/15/1 198/16/1 199/2/1 200/1/1
f 201/17/1 202/18/1 203/5/1 204/13/1
f 205/15/1 206/16/1 207/2/1 208/1/1
f 209/17/1 210/18/1 211/5/1 212/13/1
f 213/15/1 214/16/1 215/2/1 216/1/1
f 217/17/1 218/18/1 219/5/1 220/13/1
f 221/15/1 222/16/1 223/2/1 224/1/1
f 225/17/1 226/18/1 227/5/1 228/13/1
f 229/10/1 230/9/1 231/17/1 232/49/1
f 233/50/1 234/51/1 235/52/1 236/53/1
f 237/10/1 238/9/1 239/17/1 240/49/1
f 241/49/1 242/17/1 243/13/1 244/54/1
f 245/55/1 246/56/1 247/50/1 248/57/1
f 249/49/1 250/17/1 251/13/1 252/54/1
f 253/15/1 254/16/1 255/2/1 256/1/1
f 257/17/1 258/18/1 259/5/1 260/13/1
f 261/15/1 262/16/1 263/2/1 264/1/1
f 265/17/1 266/18/1 267/5/1 268/13/1
f 269/15/1 270/16/1 271/2/1 272/1/1
f 273/17/1 274/18/1 275/5/1 276/13/1
f 277/15/1 278/16/1 279/2/1 280/1/1
f 281/17/1 282/18/1 283/5/1 284/13/1
f 285/15/1 286/16/1 287/2/1 288/1/1
f 289/58/1 290/59/1 291/60/1 292/61/1
f 293/45/1 294/46/1 295/47/1 296/48/1
f 297/17/1 298/18/1 299/5/1 300/13/1
f 301/15/1 302/16/1 303/2/1 304/1/1
f 305/62/1 306/58/1 307/61/1 308/63/1
f 309/17/1 310/18/1 311/5/1 312/13/1
f 313/15/1 314/16/1 315/2/1 316/1/1
f 317/17/1 318/18/1 319/5/1 320/13/1
f 321/15/1 322/16/1 323/2/1 324/1/1
f 325/17/1 326/18/1 327/5/1 328/13/1
f 329/64/1 330/65/1 331/16/1 332/15/1
f 333/12/1 334/64/1 335/15/1 336/18/1
f 337/12/1 338/64/1 339/15/1 340/18/1
f 341/12/1 342/64/1 343/15/1 344/18/1
f 345/12/1 346/64/1 347/15/1 348/18/1
f 349/12/1 350/64/1 351/15/1 352/18/1
f 353/12/1 354/64/1 355/15/1 356/18/1
f 357/12/1 358/64/1 359/15/1 360/18/1
f 361/12/1 362/64/1 363/15/1 364/18/1
f 365/12/1 366/64/1 367/15/1 368/18/1
f 369/12/1 370/64/1 371/15/1 372/18/1
f 373/12/1 374/64/1 375/15/1 376/18/1
f 377/12/1 378/64/1 379/15/1 380/18/1
f 381/12/1 382/64/1 383/15/1 384/18/1
f 385/12/1 386/64/1 387/15/1 388/18/1
f 389/12/1 390/64/1 391/15/1 392/18/1
f 393/12/1 394/64/1 395/15/1 396/18/1
f 397/12/1 398/64/1 399/15/1 400/18/1
f 401/12/1 402/64/1 403/15/1 404/18/1
f 405/12/1 406/64/1 407/15/1 408/18/1
f 409/12/1 410/64/1 411/15/1 412/18/1
f 413/12/1 414/64/1 415/15/1 416/18/1
f 417/12/1 418/64/1 419/15/1 420/18/1
f 421/12/1 422/64/1 423/15/1 424/18/1
f 425/9/1 426/12/1 427/18/1 428/17/1

